<?xml version="1.0" encoding="UTF-8" standalone="no"?>
<!DOCTYPE svg PUBLIC "-//W3C//DTD SVG 1.1//EN"
 "http://www.w3.org/Graphics/SVG/1.1/DTD/svg11.dtd">
<!-- Generated by graphviz version 2.46.0 (20210118.1747)
 -->
<!-- Pages: 1 -->
<svg width="2014pt" height="442pt"
 viewBox="0.00 0.00 2013.85 442.00" xmlns="http://www.w3.org/2000/svg" xmlns:xlink="http://www.w3.org/1999/xlink">
<g id="graph0" class="graph" transform="scale(1 1) rotate(0) translate(4 438)">
<polygon fill="#3f3f3f" stroke="transparent" points="-4,4 -4,-438 2009.85,-438 2009.85,4 -4,4"/>
<text text-anchor="middle" x="1002.93" y="-9.2" font-family="Times New Roman,serif" font-size="16.00" fill="white">Network Map</text>
<g id="node1" class="node">
<title></title>
<polygon fill="#006699" stroke="#006699" points="1495,-62 1441,-62 1441,-26 1495,-26 1495,-62"/>
</g>
<!-- 10.48.56.10 -->
<g id="node19" class="node">
<title>10.48.56.10</title>
<polygon fill="#006699" stroke="#006699" points="1536,-186 1400,-186 1400,-113 1536,-113 1536,-186"/>
<text text-anchor="middle" x="1468" y="-145.8" font-family="Helvetica,sans-Serif" font-size="14.00" fill="white">10.48.56.10</text>
</g>
<!-- &#45;&#45;10.48.56.10 -->
<g id="edge20" class="edge">
<title>&#45;&#45;10.48.56.10</title>
<path fill="none" stroke="green" stroke-dasharray="5,2" d="M1468,-62.09C1468,-75.87 1468,-95.72 1468,-112.92"/>
<text text-anchor="middle" x="1518" y="-83.8" font-family="Courier,monospace" font-size="14.00" fill="white"> &#160;&#160;&#160;&#160;&#160;&#160;&#160;&#160;&#160;&#160;&#160;</text>
<text text-anchor="middle" x="1381" y="-101.72" font-family="Courier,monospace" font-size="14.00" fill="white">Wlan&#45;GigabitEthernet0</text>
<text text-anchor="middle" x="1401.5" y="-65.89" font-family="Courier,monospace" font-size="14.00" fill="white">GigabitEthernet0</text>
</g>
<!-- 10.48.57.218 -->
<g id="node2" class="node">
<title>10.48.57.218</title>
<polygon fill="#006699" stroke="#006699" points="1816,-186 1672,-186 1672,-113 1816,-113 1816,-186"/>
<text text-anchor="middle" x="1744" y="-145.8" font-family="Helvetica,sans-Serif" font-size="14.00" fill="white">10.48.57.218</text>
</g>
<!-- 10.48.56.12 -->
<g id="node4" class="node">
<title>10.48.56.12</title>
<polygon fill="#006699" stroke="#006699" points="1712,-310 1576,-310 1576,-237 1712,-237 1712,-310"/>
<text text-anchor="middle" x="1644" y="-269.8" font-family="Helvetica,sans-Serif" font-size="14.00" fill="white">10.48.56.12</text>
</g>
<!-- 10.48.57.218&#45;&#45;10.48.56.12 -->
<g id="edge17" class="edge">
<title>10.48.57.218&#45;&#45;10.48.56.12</title>
<path fill="none" stroke="green" stroke-dasharray="5,2" d="M1714.81,-186.12C1701.78,-202.01 1686.46,-220.7 1673.4,-236.63"/>
<text text-anchor="middle" x="1750" y="-207.8" font-family="Courier,monospace" font-size="14.00" fill="white"> &#160;&#160;&#160;&#160;&#160;&#160;&#160;&#160;&#160;&#160;&#160;</text>
<text text-anchor="middle" x="1606.9" y="-225.43" font-family="Courier,monospace" font-size="14.00" fill="white">FastEthernet0/19</text>
<text text-anchor="middle" x="1640.31" y="-189.92" font-family="Courier,monospace" font-size="14.00" fill="white">GigabitEthernet0.1</text>
</g>
<!-- 10.48.247.170 -->
<g id="node3" class="node">
<title>10.48.247.170</title>
<polygon fill="#006699" stroke="#006699" points="853,-434 701,-434 701,-361 853,-361 853,-434"/>
<text text-anchor="middle" x="777" y="-393.8" font-family="Helvetica,sans-Serif" font-size="14.00" fill="white">10.48.247.170</text>
</g>
<!-- 10.48.56.12&#45;&#45;10.48.247.170 -->
<g id="edge6" class="edge">
<title>10.48.56.12&#45;&#45;10.48.247.170</title>
<path fill="none" stroke="green" stroke-dasharray="5,2" d="M1575.91,-288.14C1499.68,-303.08 1372.36,-327.04 1262,-343 1118.01,-363.83 948.92,-380.79 853.23,-389.7"/>
<text text-anchor="middle" x="1407" y="-331.8" font-family="Courier,monospace" font-size="14.00" fill="white"> &#160;&#160;&#160;&#160;&#160;&#160;&#160;&#160;&#160;&#160;&#160;</text>
<text text-anchor="middle" x="931.73" y="-393.5" font-family="Courier,monospace" font-size="14.00" fill="white">GigabitEthernet0/14</text>
<text text-anchor="middle" x="1501.41" y="-276.94" font-family="Courier,monospace" font-size="14.00" fill="white">GigabitEthernet0/1</text>
</g>
<!-- 10.48.57.219 -->
<g id="node5" class="node">
<title>10.48.57.219</title>
<polygon fill="#006699" stroke="#006699" points="1228,-186 1084,-186 1084,-113 1228,-113 1228,-186"/>
<text text-anchor="middle" x="1156" y="-145.8" font-family="Helvetica,sans-Serif" font-size="14.00" fill="white">10.48.57.219</text>
</g>
<!-- 10.48.56.15 -->
<g id="node20" class="node">
<title>10.48.56.15</title>
<polygon fill="#006699" stroke="#006699" points="1303,-310 1167,-310 1167,-237 1303,-237 1303,-310"/>
<text text-anchor="middle" x="1235" y="-269.8" font-family="Helvetica,sans-Serif" font-size="14.00" fill="white">10.48.56.15</text>
</g>
<!-- 10.48.57.219&#45;&#45;10.48.56.15 -->
<g id="edge13" class="edge">
<title>10.48.57.219&#45;&#45;10.48.56.15</title>
<path fill="none" stroke="green" stroke-dasharray="5,2" d="M1173.05,-186.09C1178.67,-196.91 1185.22,-208.66 1192,-219 1195.92,-224.98 1200.37,-231.09 1204.87,-236.95"/>
<text text-anchor="middle" x="1242" y="-207.8" font-family="Courier,monospace" font-size="14.00" fill="white"> &#160;&#160;&#160;&#160;&#160;&#160;&#160;&#160;&#160;&#160;&#160;</text>
<text text-anchor="middle" x="1138.37" y="-225.75" font-family="Courier,monospace" font-size="14.00" fill="white">FastEthernet0/17</text>
<text text-anchor="middle" x="1098.55" y="-189.89" font-family="Courier,monospace" font-size="14.00" fill="white">GigabitEthernet0.1</text>
</g>
<!-- 10.48.56.53 -->
<g id="node6" class="node">
<title>10.48.56.53</title>
<polygon fill="#006699" stroke="#006699" points="1066,-186 930,-186 930,-113 1066,-113 1066,-186"/>
<text text-anchor="middle" x="998" y="-145.8" font-family="Helvetica,sans-Serif" font-size="14.00" fill="white">10.48.56.53</text>
</g>
<!-- 10.48.56.17 -->
<g id="node18" class="node">
<title>10.48.56.17</title>
<polygon fill="#006699" stroke="#006699" points="1149,-310 1013,-310 1013,-237 1149,-237 1149,-310"/>
<text text-anchor="middle" x="1081" y="-269.8" font-family="Helvetica,sans-Serif" font-size="14.00" fill="white">10.48.56.17</text>
</g>
<!-- 10.48.56.53&#45;&#45;10.48.56.17 -->
<g id="edge11" class="edge">
<title>10.48.56.53&#45;&#45;10.48.56.17</title>
<path fill="none" stroke="green" stroke-dasharray="5,2" d="M1022.23,-186.12C1033.04,-202.01 1045.76,-220.7 1056.6,-236.63"/>
<text text-anchor="middle" x="1095" y="-207.8" font-family="Courier,monospace" font-size="14.00" fill="white"> &#160;&#160;&#160;&#160;&#160;&#160;&#160;&#160;&#160;&#160;&#160;</text>
<text text-anchor="middle" x="990.1" y="-225.43" font-family="Courier,monospace" font-size="14.00" fill="white">FastEthernet0/27</text>
<text text-anchor="middle" x="947.73" y="-189.92" font-family="Courier,monospace" font-size="14.00" fill="white">GigabitEthernet0.1</text>
</g>
<!-- 10.48.57.49 -->
<g id="node7" class="node">
<title>10.48.57.49</title>
<polygon fill="#006699" stroke="#006699" points="1382,-186 1246,-186 1246,-113 1382,-113 1382,-186"/>
<text text-anchor="middle" x="1314" y="-145.8" font-family="Helvetica,sans-Serif" font-size="14.00" fill="white">10.48.57.49</text>
</g>
<!-- 10.48.57.49&#45;&#45;10.48.56.15 -->
<g id="edge14" class="edge">
<title>10.48.57.49&#45;&#45;10.48.56.15</title>
<path fill="none" stroke="green" stroke-dasharray="5,2" d="M1306.26,-186.15C1302.91,-197.21 1298.28,-209.08 1292,-219 1288.08,-225.19 1283.28,-231.16 1278.14,-236.71"/>
<text text-anchor="middle" x="1350" y="-207.8" font-family="Courier,monospace" font-size="14.00" fill="white"> &#160;&#160;&#160;&#160;&#160;&#160;&#160;&#160;&#160;&#160;&#160;</text>
<text text-anchor="middle" x="1344.64" y="-225.51" font-family="Courier,monospace" font-size="14.00" fill="white">FastEthernet0/11</text>
<text text-anchor="middle" x="1281.26" y="-189.95" font-family="Courier,monospace" font-size="14.00" fill="white">Port 1</text>
</g>
<!-- 10.48.56.14 -->
<g id="node8" class="node">
<title>10.48.56.14</title>
<polygon fill="#006699" stroke="#006699" points="217,-310 81,-310 81,-237 217,-237 217,-310"/>
<text text-anchor="middle" x="149" y="-269.8" font-family="Helvetica,sans-Serif" font-size="14.00" fill="white">10.48.56.14</text>
</g>
<!-- 10.48.56.14&#45;&#45;10.48.247.170 -->
<g id="edge3" class="edge">
<title>10.48.56.14&#45;&#45;10.48.247.170</title>
<path fill="none" stroke="green" stroke-dasharray="5,2" d="M211.61,-310.13C235.99,-322.48 264.6,-335.17 292,-343 432.51,-383.14 603.87,-393.48 700.71,-395.95"/>
<text text-anchor="middle" x="342" y="-331.8" font-family="Courier,monospace" font-size="14.00" fill="white"> &#160;&#160;&#160;&#160;&#160;&#160;&#160;&#160;&#160;&#160;&#160;</text>
<text text-anchor="middle" x="622.21" y="-384.75" font-family="Courier,monospace" font-size="14.00" fill="white">GigabitEthernet0/11</text>
<text text-anchor="middle" x="137.11" y="-313.93" font-family="Courier,monospace" font-size="14.00" fill="white">GigabitEthernet0/1</text>
</g>
<!-- 10.48.56.51 -->
<g id="node9" class="node">
<title>10.48.56.51</title>
<polygon fill="#006699" stroke="#006699" points="1970,-186 1834,-186 1834,-113 1970,-113 1970,-186"/>
<text text-anchor="middle" x="1902" y="-145.8" font-family="Helvetica,sans-Serif" font-size="14.00" fill="white">10.48.56.51</text>
</g>
<!-- 10.48.56.51&#45;&#45;10.48.56.12 -->
<g id="edge16" class="edge">
<title>10.48.56.51&#45;&#45;10.48.56.12</title>
<path fill="none" stroke="green" stroke-dasharray="5,2" d="M1856.85,-186.12C1840.79,-197.67 1822.17,-209.85 1804,-219 1775.09,-233.55 1741.33,-245.51 1712.29,-254.4"/>
<text text-anchor="middle" x="1880" y="-207.8" font-family="Courier,monospace" font-size="14.00" fill="white"> &#160;&#160;&#160;&#160;&#160;&#160;&#160;&#160;&#160;&#160;&#160;</text>
<text text-anchor="middle" x="1778.79" y="-243.2" font-family="Courier,monospace" font-size="14.00" fill="white">FastEthernet0/16</text>
<text text-anchor="middle" x="1931.35" y="-189.92" font-family="Courier,monospace" font-size="14.00" fill="white">GigabitEthernet0.1</text>
</g>
<!-- 10.48.247.171 -->
<g id="node10" class="node">
<title>10.48.247.171</title>
<polygon fill="#006699" stroke="#006699" points="387,-310 235,-310 235,-237 387,-237 387,-310"/>
<text text-anchor="middle" x="311" y="-269.8" font-family="Helvetica,sans-Serif" font-size="14.00" fill="white">10.48.247.171</text>
</g>
<!-- 10.48.247.171&#45;&#45;10.48.247.170 -->
<g id="edge4" class="edge">
<title>10.48.247.171&#45;&#45;10.48.247.170</title>
<path fill="none" stroke="green" stroke-dasharray="5,2" d="M363.18,-310.12C383.28,-322.31 406.95,-334.91 430,-343 519.86,-374.55 629.3,-387.52 700.94,-392.83"/>
<text text-anchor="middle" x="480" y="-331.8" font-family="Courier,monospace" font-size="14.00" fill="white"> &#160;&#160;&#160;&#160;&#160;&#160;&#160;&#160;&#160;&#160;&#160;</text>
<text text-anchor="middle" x="626.44" y="-396.63" font-family="Courier,monospace" font-size="14.00" fill="white">GigabitEthernet0/1</text>
<text text-anchor="middle" x="404.68" y="-313.92" font-family="Courier,monospace" font-size="14.00" fill="white">GigabitEthernet1/0/1</text>
</g>
<!-- 10.48.56.16 -->
<g id="node11" class="node">
<title>10.48.56.16</title>
<polygon fill="#006699" stroke="#006699" points="695,-310 559,-310 559,-237 695,-237 695,-310"/>
<text text-anchor="middle" x="627" y="-269.8" font-family="Helvetica,sans-Serif" font-size="14.00" fill="white">10.48.56.16</text>
</g>
<!-- 10.48.56.16&#45;&#45;10.48.247.170 -->
<g id="edge7" class="edge">
<title>10.48.56.16&#45;&#45;10.48.247.170</title>
<path fill="none" stroke="green" stroke-dasharray="5,2" d="M646.18,-310.26C653.5,-321.69 662.62,-333.76 673,-343 681.34,-350.42 690.9,-357.13 700.77,-363.08"/>
<text text-anchor="middle" x="723" y="-331.8" font-family="Courier,monospace" font-size="14.00" fill="white"> &#160;&#160;&#160;&#160;&#160;&#160;&#160;&#160;&#160;&#160;&#160;</text>
<text text-anchor="middle" x="622.27" y="-351.88" font-family="Courier,monospace" font-size="14.00" fill="white">GigabitEthernet0/15</text>
<text text-anchor="middle" x="571.68" y="-314.06" font-family="Courier,monospace" font-size="14.00" fill="white">GigabitEthernet0/1</text>
</g>
<!-- 10.48.56.9 -->
<g id="node12" class="node">
<title>10.48.56.9</title>
<polygon fill="#006699" stroke="#006699" points="841,-310 713,-310 713,-237 841,-237 841,-310"/>
<text text-anchor="middle" x="777" y="-269.8" font-family="Helvetica,sans-Serif" font-size="14.00" fill="white">10.48.56.9</text>
</g>
<!-- 10.48.56.9&#45;&#45;10.48.247.170 -->
<g id="edge8" class="edge">
<title>10.48.56.9&#45;&#45;10.48.247.170</title>
<path fill="none" stroke="green" stroke-dasharray="5,2" d="M777,-310.12C777,-326.01 777,-344.7 777,-360.63"/>
<text text-anchor="middle" x="827" y="-331.8" font-family="Courier,monospace" font-size="14.00" fill="white"> &#160;&#160;&#160;&#160;&#160;&#160;&#160;&#160;&#160;&#160;&#160;</text>
<text text-anchor="middle" x="855.5" y="-349.43" font-family="Courier,monospace" font-size="14.00" fill="white">GigabitEthernet0/10</text>
<text text-anchor="middle" x="814.25" y="-313.92" font-family="Courier,monospace" font-size="14.00" fill="white">GigabitEthernet0/1</text>
</g>
<!-- 10.48.56.48 -->
<g id="node13" class="node">
<title>10.48.56.48</title>
<polygon fill="#006699" stroke="#006699" points="217,-186 81,-186 81,-113 217,-113 217,-186"/>
<text text-anchor="middle" x="149" y="-145.8" font-family="Helvetica,sans-Serif" font-size="14.00" fill="white">10.48.56.48</text>
</g>
<!-- 10.48.56.48&#45;&#45;10.48.56.14 -->
<g id="edge15" class="edge">
<title>10.48.56.48&#45;&#45;10.48.56.14</title>
<path fill="none" stroke="green" stroke-dasharray="5,2" d="M149,-186.12C149,-202.01 149,-220.7 149,-236.63"/>
<text text-anchor="middle" x="199" y="-207.8" font-family="Courier,monospace" font-size="14.00" fill="white"> &#160;&#160;&#160;&#160;&#160;&#160;&#160;&#160;&#160;&#160;&#160;</text>
<text text-anchor="middle" x="82.5" y="-225.43" font-family="Courier,monospace" font-size="14.00" fill="white">FastEthernet0/12</text>
<text text-anchor="middle" x="74.5" y="-189.92" font-family="Courier,monospace" font-size="14.00" fill="white">GigabitEthernet0.1</text>
</g>
<!-- 10.48.56.47 -->
<g id="node14" class="node">
<title>10.48.56.47</title>
<polygon fill="#006699" stroke="#006699" points="541,-186 405,-186 405,-113 541,-113 541,-186"/>
<text text-anchor="middle" x="473" y="-145.8" font-family="Helvetica,sans-Serif" font-size="14.00" fill="white">10.48.56.47</text>
</g>
<!-- 10.48.56.18 -->
<g id="node17" class="node">
<title>10.48.56.18</title>
<polygon fill="#006699" stroke="#006699" points="541,-310 405,-310 405,-237 541,-237 541,-310"/>
<text text-anchor="middle" x="473" y="-269.8" font-family="Helvetica,sans-Serif" font-size="14.00" fill="white">10.48.56.18</text>
</g>
<!-- 10.48.56.47&#45;&#45;10.48.56.18 -->
<g id="edge10" class="edge">
<title>10.48.56.47&#45;&#45;10.48.56.18</title>
<path fill="none" stroke="green" stroke-dasharray="5,2" d="M473,-186.12C473,-202.01 473,-220.7 473,-236.63"/>
<text text-anchor="middle" x="523" y="-207.8" font-family="Courier,monospace" font-size="14.00" fill="white"> &#160;&#160;&#160;&#160;&#160;&#160;&#160;&#160;&#160;&#160;&#160;</text>
<text text-anchor="middle" x="406.5" y="-225.43" font-family="Courier,monospace" font-size="14.00" fill="white">FastEthernet0/46</text>
<text text-anchor="middle" x="398.5" y="-189.92" font-family="Courier,monospace" font-size="14.00" fill="white">GigabitEthernet0.1</text>
</g>
<!-- 10.48.56.30 -->
<g id="node15" class="node">
<title>10.48.56.30</title>
<polygon fill="#006699" stroke="#006699" points="379,-186 243,-186 243,-113 379,-113 379,-186"/>
<text text-anchor="middle" x="311" y="-145.8" font-family="Helvetica,sans-Serif" font-size="14.00" fill="white">10.48.56.30</text>
</g>
<!-- 10.48.56.30&#45;&#45;10.48.247.171 -->
<g id="edge12" class="edge">
<title>10.48.56.30&#45;&#45;10.48.247.171</title>
<path fill="none" stroke="green" stroke-dasharray="5,2" d="M311,-186.12C311,-202.01 311,-220.7 311,-236.63"/>
<text text-anchor="middle" x="361" y="-207.8" font-family="Courier,monospace" font-size="14.00" fill="white"> &#160;&#160;&#160;&#160;&#160;&#160;&#160;&#160;&#160;&#160;&#160;</text>
<text text-anchor="middle" x="224" y="-225.43" font-family="Courier,monospace" font-size="14.00" fill="white">GigabitEthernet1/0/13</text>
<text text-anchor="middle" x="282" y="-189.92" font-family="Courier,monospace" font-size="14.00" fill="white">Eth 1/1</text>
</g>
<!-- 10.48.56.11 -->
<g id="node16" class="node">
<title>10.48.56.11</title>
<polygon fill="#006699" stroke="#006699" points="995,-310 859,-310 859,-237 995,-237 995,-310"/>
<text text-anchor="middle" x="927" y="-269.8" font-family="Helvetica,sans-Serif" font-size="14.00" fill="white">10.48.56.11</text>
</g>
<!-- 10.48.56.11&#45;&#45;10.48.247.170 -->
<g id="edge2" class="edge">
<title>10.48.56.11&#45;&#45;10.48.247.170</title>
<path fill="none" stroke="green" stroke-dasharray="5,2" d="M907.82,-310.26C900.5,-321.69 891.38,-333.76 881,-343 872.66,-350.42 863.1,-357.13 853.23,-363.08"/>
<text text-anchor="middle" x="945" y="-331.8" font-family="Courier,monospace" font-size="14.00" fill="white"> &#160;&#160;&#160;&#160;&#160;&#160;&#160;&#160;&#160;&#160;&#160;</text>
<text text-anchor="middle" x="931.73" y="-366.88" font-family="Courier,monospace" font-size="14.00" fill="white">GigabitEthernet0/20</text>
<text text-anchor="middle" x="982.32" y="-314.06" font-family="Courier,monospace" font-size="14.00" fill="white">GigabitEthernet0/1</text>
</g>
<!-- 10.48.56.18&#45;&#45;10.48.247.170 -->
<g id="edge1" class="edge">
<title>10.48.56.18&#45;&#45;10.48.247.170</title>
<path fill="none" stroke="green" stroke-dasharray="5,2" d="M508.87,-310.14C522.64,-322.12 539.12,-334.56 556,-343 601.37,-365.69 656.87,-379.08 700.91,-386.79"/>
<text text-anchor="middle" x="606" y="-331.8" font-family="Courier,monospace" font-size="14.00" fill="white"> &#160;&#160;&#160;&#160;&#160;&#160;&#160;&#160;&#160;&#160;&#160;</text>
<text text-anchor="middle" x="622.41" y="-375.59" font-family="Courier,monospace" font-size="14.00" fill="white">GigabitEthernet0/18</text>
<text text-anchor="middle" x="434.37" y="-298.94" font-family="Courier,monospace" font-size="14.00" fill="white">GigabitEthernet0/1</text>
</g>
<!-- 10.48.56.17&#45;&#45;10.48.247.170 -->
<g id="edge9" class="edge">
<title>10.48.56.17&#45;&#45;10.48.247.170</title>
<path fill="none" stroke="green" stroke-dasharray="5,2" d="M1045.63,-310.16C1032.03,-322.14 1015.74,-334.58 999,-343 953.4,-365.94 897.52,-379.34 853.23,-386.99"/>
<text text-anchor="middle" x="1072" y="-331.8" font-family="Courier,monospace" font-size="14.00" fill="white"> &#160;&#160;&#160;&#160;&#160;&#160;&#160;&#160;&#160;&#160;&#160;</text>
<text text-anchor="middle" x="931.73" y="-375.79" font-family="Courier,monospace" font-size="14.00" fill="white">GigabitEthernet0/17</text>
<text text-anchor="middle" x="1120.13" y="-313.96" font-family="Courier,monospace" font-size="14.00" fill="white">GigabitEthernet0/1</text>
</g>
<!-- 10.48.56.10&#45;&#45;10.48.56.12 -->
<g id="edge18" class="edge">
<title>10.48.56.10&#45;&#45;10.48.56.12</title>
<path fill="none" stroke="green" stroke-dasharray="5,2" d="M1519.38,-186.12C1542.41,-202.08 1569.52,-220.87 1592.56,-236.84"/>
<text text-anchor="middle" x="1617" y="-207.8" font-family="Courier,monospace" font-size="14.00" fill="white"> &#160;&#160;&#160;&#160;&#160;&#160;&#160;&#160;&#160;&#160;&#160;</text>
<text text-anchor="middle" x="1530.56" y="-240.64" font-family="Courier,monospace" font-size="14.00" fill="white">FastEthernet0/5</text>
<text text-anchor="middle" x="1465.38" y="-189.92" font-family="Courier,monospace" font-size="14.00" fill="white">FastEthernet0</text>
</g>
<!-- 10.48.56.10&#45;&#45;10.48.56.10 -->
<g id="edge19" class="edge">
<title>10.48.56.10&#45;&#45;10.48.56.10</title>
<path fill="none" stroke="green" stroke-dasharray="5,2" d="M1536.13,-138.85C1546.76,-140.44 1554,-143.99 1554,-149.5 1554,-155.01 1546.76,-158.56 1536.13,-160.15"/>
<text text-anchor="middle" x="1604" y="-145.8" font-family="Courier,monospace" font-size="14.00" fill="white"> &#160;&#160;&#160;&#160;&#160;&#160;&#160;&#160;&#160;&#160;&#160;</text>
<text text-anchor="middle" x="1569.63" y="-163.95" font-family="Courier,monospace" font-size="14.00" fill="white">wlan&#45;ap0</text>
<text text-anchor="middle" x="1569.63" y="-127.65" font-family="Courier,monospace" font-size="14.00" fill="white">wlan&#45;ap0</text>
</g>
<!-- 10.48.56.15&#45;&#45;10.48.247.170 -->
<g id="edge5" class="edge">
<title>10.48.56.15&#45;&#45;10.48.247.170</title>
<path fill="none" stroke="green" stroke-dasharray="5,2" d="M1187.85,-310.05C1169.43,-322.31 1147.57,-334.96 1126,-343 1035.96,-376.54 925.34,-389.07 853.1,-393.74"/>
<text text-anchor="middle" x="1208" y="-331.8" font-family="Courier,monospace" font-size="14.00" fill="white"> &#160;&#160;&#160;&#160;&#160;&#160;&#160;&#160;&#160;&#160;&#160;</text>
<text text-anchor="middle" x="927.6" y="-397.54" font-family="Courier,monospace" font-size="14.00" fill="white">GigabitEthernet0/5</text>
<text text-anchor="middle" x="1262.35" y="-313.85" font-family="Courier,monospace" font-size="14.00" fill="white">GigabitEthernet0/1</text>
</g>
</g>
</svg>
