<?xml version="1.0" encoding="UTF-8" standalone="no"?>
<!DOCTYPE svg PUBLIC "-//W3C//DTD SVG 1.1//EN"
 "http://www.w3.org/Graphics/SVG/1.1/DTD/svg11.dtd">
<!-- Generated by graphviz version 2.38.0 (20140413.2041)
 -->
<!-- Title: %3 Pages: 1 -->
<svg width="623pt" height="355pt"
 viewBox="0.00 0.00 622.86 355.00" xmlns="http://www.w3.org/2000/svg" xmlns:xlink="http://www.w3.org/1999/xlink">
<g id="graph0" class="graph" transform="scale(1 1) rotate(0) translate(4 351)">
<title>%3</title>
<polygon fill="#333333" stroke="none" points="-4,4 -4,-351 618.861,-351 618.861,4 -4,4"/>
<text text-anchor="middle" x="307.431" y="-9.2" font-family="Times,serif" font-size="16.00" fill="white">Network Map</text>
<!-- R5 -->
<g id="node1" class="node"><title>R5</title>
<polygon fill="#006699" stroke="#006699" points="84.3611,-99 7.36111,-99 7.36111,-26 84.3611,-26 84.3611,-99"/>
<text text-anchor="middle" x="45.8611" y="-58.8" font-family="Helvetica,sans-Serif" font-size="14.00" fill="white">R5</text>
</g>
<!-- R3 -->
<g id="node6" class="node"><title>R3</title>
<polygon fill="#006699" stroke="#006699" points="207.361,-223 130.361,-223 130.361,-150 207.361,-150 207.361,-223"/>
<text text-anchor="middle" x="168.861" y="-182.8" font-family="Helvetica,sans-Serif" font-size="14.00" fill="white">R3</text>
</g>
<!-- R5&#45;&#45;R3 -->
<g id="edge7" class="edge"><title>R5&#45;&#45;R3</title>
<path fill="none" stroke="green" stroke-dasharray="5,2" d="M50,-99.204C52.7468,-110.632 57.3047,-122.715 64.8611,-132 81.5227,-152.473 108.081,-165.949 130.188,-174.255"/>
<text text-anchor="middle" x="114.861" y="-120.8" font-family="Courier,monospace" font-size="14.00" fill="white"> &#160;&#160;&#160;&#160;&#160;&#160;&#160;&#160;&#160;&#160;&#160;</text>
<text text-anchor="middle" x="105.188" y="-163.055" font-family="Courier,monospace" font-size="14.00" fill="white">Eth0/2</text>
<text text-anchor="middle" x="25" y="-103.004" font-family="Courier,monospace" font-size="14.00" fill="white">Eth0/0</text>
</g>
<!-- R2 -->
<g id="node2" class="node"><title>R2</title>
<polygon fill="#006699" stroke="#006699" points="330.361,-223 253.361,-223 253.361,-150 330.361,-150 330.361,-223"/>
<text text-anchor="middle" x="291.861" y="-182.8" font-family="Helvetica,sans-Serif" font-size="14.00" fill="white">R2</text>
</g>
<!-- SW1 -->
<g id="node3" class="node"><title>SW1</title>
<polygon fill="#006699" stroke="#006699" points="398.861,-347 306.861,-347 306.861,-274 398.861,-274 398.861,-347"/>
<text text-anchor="middle" x="352.861" y="-306.8" font-family="Helvetica,sans-Serif" font-size="14.00" fill="white">SW1</text>
</g>
<!-- R2&#45;&#45;SW1 -->
<g id="edge2" class="edge"><title>R2&#45;&#45;SW1</title>
<path fill="none" stroke="green" stroke-dasharray="5,2" d="M286.97,-223.212C286.875,-234.148 288.264,-245.939 292.861,-256 296.225,-263.362 301.145,-270.135 306.742,-276.207"/>
<text text-anchor="middle" x="342.861" y="-244.8" font-family="Courier,monospace" font-size="14.00" fill="white"> &#160;&#160;&#160;&#160;&#160;&#160;&#160;&#160;&#160;&#160;&#160;</text>
<text text-anchor="middle" x="281.742" y="-265.007" font-family="Courier,monospace" font-size="14.00" fill="white">Eth0/2</text>
<text text-anchor="middle" x="261.97" y="-227.012" font-family="Courier,monospace" font-size="14.00" fill="white">Eth0/0</text>
</g>
<!-- SW2 -->
<g id="node4" class="node"><title>SW2</title>
<polygon fill="#006699" stroke="#006699" points="337.861,-99 245.861,-99 245.861,-26 337.861,-26 337.861,-99"/>
<text text-anchor="middle" x="291.861" y="-58.8" font-family="Helvetica,sans-Serif" font-size="14.00" fill="white">SW2</text>
</g>
<!-- SW2&#45;&#45;R2 -->
<g id="edge5" class="edge"><title>SW2&#45;&#45;R2</title>
<path fill="none" stroke="green" stroke-dasharray="5,2" d="M291.861,-99.1154C291.861,-115.01 291.861,-133.704 291.861,-149.629"/>
<text text-anchor="middle" x="341.861" y="-120.8" font-family="Courier,monospace" font-size="14.00" fill="white"> &#160;&#160;&#160;&#160;&#160;&#160;&#160;&#160;&#160;&#160;&#160;</text>
<text text-anchor="middle" x="266.861" y="-138.429" font-family="Courier,monospace" font-size="14.00" fill="white">Eth0/1</text>
<text text-anchor="middle" x="262.861" y="-102.915" font-family="Courier,monospace" font-size="14.00" fill="white">Eth0/11</text>
</g>
<!-- R1 -->
<g id="node5" class="node"><title>R1</title>
<polygon fill="#006699" stroke="#006699" points="453.361,-223 376.361,-223 376.361,-150 453.361,-150 453.361,-223"/>
<text text-anchor="middle" x="414.861" y="-182.8" font-family="Helvetica,sans-Serif" font-size="14.00" fill="white">R1</text>
</g>
<!-- R1&#45;&#45;SW1 -->
<g id="edge1" class="edge"><title>R1&#45;&#45;SW1</title>
<path fill="none" stroke="green" stroke-dasharray="5,2" d="M405.831,-223.245C402.454,-234.069 398.131,-245.788 392.861,-256 389.777,-261.977 386.037,-267.993 382.096,-273.721"/>
<text text-anchor="middle" x="448.861" y="-244.8" font-family="Courier,monospace" font-size="14.00" fill="white"> &#160;&#160;&#160;&#160;&#160;&#160;&#160;&#160;&#160;&#160;&#160;</text>
<text text-anchor="middle" x="357.096" y="-262.521" font-family="Courier,monospace" font-size="14.00" fill="white">Eth0/1</text>
<text text-anchor="middle" x="380.831" y="-227.045" font-family="Courier,monospace" font-size="14.00" fill="white">Eth0/0</text>
</g>
<!-- R3&#45;&#45;SW1 -->
<g id="edge3" class="edge"><title>R3&#45;&#45;SW1</title>
<path fill="none" stroke="green" stroke-dasharray="5,2" d="M170.275,-223.171C172.404,-234.865 176.655,-247.121 184.861,-256 216.127,-289.833 268.694,-302.376 306.711,-306.969"/>
<text text-anchor="middle" x="234.861" y="-244.8" font-family="Courier,monospace" font-size="14.00" fill="white"> &#160;&#160;&#160;&#160;&#160;&#160;&#160;&#160;&#160;&#160;&#160;</text>
<text text-anchor="middle" x="281.711" y="-295.769" font-family="Courier,monospace" font-size="14.00" fill="white">Eth0/3</text>
<text text-anchor="middle" x="145.275" y="-226.971" font-family="Courier,monospace" font-size="14.00" fill="white">Eth0/0</text>
</g>
<!-- R4 -->
<g id="node7" class="node"><title>R4</title>
<polygon fill="#006699" stroke="#006699" points="207.361,-99 130.361,-99 130.361,-26 207.361,-26 207.361,-99"/>
<text text-anchor="middle" x="168.861" y="-58.8" font-family="Helvetica,sans-Serif" font-size="14.00" fill="white">R4</text>
</g>
<!-- R4&#45;&#45;R3 -->
<g id="edge6" class="edge"><title>R4&#45;&#45;R3</title>
<path fill="none" stroke="green" stroke-dasharray="5,2" d="M168.861,-99.1154C168.861,-115.01 168.861,-133.704 168.861,-149.629"/>
<text text-anchor="middle" x="218.861" y="-120.8" font-family="Courier,monospace" font-size="14.00" fill="white"> &#160;&#160;&#160;&#160;&#160;&#160;&#160;&#160;&#160;&#160;&#160;</text>
<text text-anchor="middle" x="143.861" y="-138.429" font-family="Courier,monospace" font-size="14.00" fill="white">Eth0/1</text>
<text text-anchor="middle" x="143.861" y="-102.915" font-family="Courier,monospace" font-size="14.00" fill="white">Eth0/0</text>
</g>
<!-- R6 -->
<g id="node8" class="node"><title>R6</title>
<polygon fill="#006699" stroke="#006699" points="576.361,-223 499.361,-223 499.361,-150 576.361,-150 576.361,-223"/>
<text text-anchor="middle" x="537.861" y="-182.8" font-family="Helvetica,sans-Serif" font-size="14.00" fill="white">R6</text>
</g>
<!-- R6&#45;&#45;SW1 -->
<g id="edge4" class="edge"><title>R6&#45;&#45;SW1</title>
<path fill="none" stroke="green" stroke-dasharray="5,2" d="M525.726,-223.348C520.282,-235.056 512.796,-247.277 502.861,-256 473.67,-281.63 431.338,-295.242 399.083,-302.307"/>
<text text-anchor="middle" x="564.861" y="-244.8" font-family="Courier,monospace" font-size="14.00" fill="white"> &#160;&#160;&#160;&#160;&#160;&#160;&#160;&#160;&#160;&#160;&#160;</text>
<text text-anchor="middle" x="424.083" y="-291.107" font-family="Courier,monospace" font-size="14.00" fill="white">Eth0/5</text>
<text text-anchor="middle" x="500.726" y="-227.148" font-family="Courier,monospace" font-size="14.00" fill="white">Eth0/1</text>
</g>
</g>
</svg>
